<svg xmlns="http://www.w3.org/2000/svg" width="706" height="246" viewBox="0 0 706 246"><style>@keyframes sw{from{transform:translateX(0)}to{transform:translateX(689px)}}.sw{animation:sw 4770ms steps(53) infinite}</style><defs><clipPath id="v"><rect x="10" y="10" width="686" height="0"/></clipPath></defs><rect width="706" height="246" rx="6" fill="#0d1117"/><text x="10" y="18" fill="#8b949e" font-family="ui-monospace,SFMono-Regular,Menlo,Consolas,monospace" font-size="11" font-weight="400" text-anchor="start">~/7csc/almanac  2025-09-21 → 2026-09-26</text><rect x="10" y="32" width="10" height="10" rx="2" fill="#ff5fa2"/><rect x="23" y="32" width="10" height="10" rx="2" fill="#ff5fa2"/><rect x="36" y="32" width="10" height="10" rx="2" fill="#ff5fa2"/><rect x="36" y="45" width="10" height="10" rx="2" fill="#ff5fa2"/><rect x="23" y="58" width="10" height="10" rx="2" fill="#ff5fa2"/><rect x="36" y="58" width="10" height="10" rx="2" fill="#ff5fa2"/><rect x="36" y="71" width="10" height="10" rx="2" fill="#ff5fa2"/><rect x="10" y="84" width="10" height="10" rx="2" fill="#ff5fa2"/><rect x="23" y="84" width="10" height="10" rx="2" fill="#ff5fa2"/><rect x="36" y="84" width="10" height="10" rx="2" fill="#ff5fa2"/><rect x="62" y="32" width="10" height="10" rx="2" fill="#ff5fa2"/><rect x="88" y="32" width="10" height="10" rx="2" fill="#ff5fa2"/><rect x="62" y="45" width="10" height="10" rx="2" fill="#ff5fa2"/><rect x="88" y="45" width="10" height="10" rx="2" fill="#ff5fa2"/><rect x="62" y="58" width="10" height="10" rx="2" fill="#ff5fa2"/><rect x="75" y="58" width="10" height="10" rx="2" fill="#ff5fa2"/><rect x="88" y="58" width="10" height="10" rx="2" fill="#ff5fa2"/><rect x="88" y="71" width="10" height="10" rx="2" fill="#ff5fa2"/><rect x="88" y="84" width="10" height="10" rx="2" fill="#ff5fa2"/><rect x="127" y="32" width="10" height="10" rx="2" fill="#ff5fa2"/><rect x="114" y="45" width="10" height="10" rx="2" fill="#ff5fa2"/><rect x="127" y="45" width="10" height="10" rx="2" fill="#ff5fa2"/><rect x="127" y="58" width="10" height="10" rx="2" fill="#ff5fa2"/><rect x="127" y="71" width="10" height="10" rx="2" fill="#ff5fa2"/><rect x="114" y="84" width="10" height="10" rx="2" fill="#ff5fa2"/><rect x="127" y="84" width="10" height="10" rx="2" fill="#ff5fa2"/><rect x="140" y="84" width="10" height="10" rx="2" fill="#ff5fa2"/><rect x="166" y="32" width="10" height="10" rx="2" fill="#ff5fa2"/><rect x="179" y="32" width="10" height="10" rx="2" fill="#ff5fa2"/><rect x="192" y="32" width="10" height="10" rx="2" fill="#ff5fa2"/><rect x="166" y="45" width="10" height="10" rx="2" fill="#ff5fa2"/><rect x="192" y="45" width="10" height="10" rx="2" fill="#ff5fa2"/><rect x="166" y="58" width="10" height="10" rx="2" fill="#ff5fa2"/><rect x="192" y="58" width="10" height="10" rx="2" fill="#ff5fa2"/><rect x="166" y="71" width="10" height="10" rx="2" fill="#ff5fa2"/><rect x="192" y="71" width="10" height="10" rx="2" fill="#ff5fa2"/><rect x="166" y="84" width="10" height="10" rx="2" fill="#ff5fa2"/><rect x="179" y="84" width="10" height="10" rx="2" fill="#ff5fa2"/><rect x="192" y="84" width="10" height="10" rx="2" fill="#ff5fa2"/><text x="10" y="111" fill="#ff5fa2" font-family="ui-monospace,SFMono-Regular,Menlo,Consolas,monospace" font-size="11" font-weight="600" text-anchor="start">contributions / last 53 weeks</text><text x="260" y="41" fill="#8b949e" font-family="ui-monospace,SFMono-Regular,Menlo,Consolas,monospace" font-size="11" font-weight="400" text-anchor="start">current streak</text><text x="380" y="41" fill="#c9d1d9" font-family="ui-monospace,SFMono-Regular,Menlo,Consolas,monospace" font-size="11" font-weight="600" text-anchor="start">28 days</text><text x="260" y="58" fill="#8b949e" font-family="ui-monospace,SFMono-Regular,Menlo,Consolas,monospace" font-size="11" font-weight="400" text-anchor="start">longest streak</text><text x="380" y="58" fill="#c9d1d9" font-family="ui-monospace,SFMono-Regular,Menlo,Consolas,monospace" font-size="11" font-weight="600" text-anchor="start">28 days</text><text x="260" y="75" fill="#8b949e" font-family="ui-monospace,SFMono-Regular,Menlo,Consolas,monospace" font-size="11" font-weight="400" text-anchor="start">active days</text><text x="380" y="75" fill="#c9d1d9" font-family="ui-monospace,SFMono-Regular,Menlo,Consolas,monospace" font-size="11" font-weight="600" text-anchor="start">261 / 371</text><text x="260" y="92" fill="#8b949e" font-family="ui-monospace,SFMono-Regular,Menlo,Consolas,monospace" font-size="11" font-weight="400" text-anchor="start">busiest day</text><text x="380" y="92" fill="#c9d1d9" font-family="ui-monospace,SFMono-Regular,Menlo,Consolas,monospace" font-size="11" font-weight="600" text-anchor="start">2026-09-16 · 161</text><text x="662" y="41" fill="#8b949e" font-family="ui-monospace,SFMono-Regular,Menlo,Consolas,monospace" font-size="11" font-weight="400" text-anchor="end">★ stars</text><text x="696" y="41" fill="#ffd76a" font-family="ui-monospace,SFMono-Regular,Menlo,Consolas,monospace" font-size="11" font-weight="600" text-anchor="end">4</text><text x="662" y="58" fill="#8b949e" font-family="ui-monospace,SFMono-Regular,Menlo,Consolas,monospace" font-size="11" font-weight="400" text-anchor="end">followers</text><text x="696" y="58" fill="#ffd76a" font-family="ui-monospace,SFMono-Regular,Menlo,Consolas,monospace" font-size="11" font-weight="600" text-anchor="end">3</text><text x="662" y="75" fill="#8b949e" font-family="ui-monospace,SFMono-Regular,Menlo,Consolas,monospace" font-size="11" font-weight="400" text-anchor="end">public repos</text><text x="696" y="75" fill="#ffd76a" font-family="ui-monospace,SFMono-Regular,Menlo,Consolas,monospace" font-size="11" font-weight="600" text-anchor="end">7</text><rect x="10" y="131" width="10" height="10" rx="2" fill="#4b3f8c"/><rect x="10" y="144" width="10" height="10" rx="2" fill="#4b3f8c"/><rect x="10" y="157" width="10" height="10" rx="2" fill="#4b3f8c"/><rect x="10" y="170" width="10" height="10" rx="2" fill="#4b3f8c"/><rect x="10" y="183" width="10" height="10" rx="2" fill="#4b3f8c"/><rect x="10" y="196" width="10" height="10" rx="2" fill="#4b3f8c"/><rect x="10" y="209" width="10" height="10" rx="2" fill="#4b3f8c"/><rect x="23" y="131" width="10" height="10" rx="2" fill="#4b3f8c"/><rect x="23" y="144" width="10" height="10" rx="2" fill="#4b3f8c"/><rect x="23" y="157" width="10" height="10" rx="2" fill="#4b3f8c"/><rect x="23" y="170" width="10" height="10" rx="2" fill="#4b3f8c"/><rect x="23" y="183" width="10" height="10" rx="2" fill="#4b3f8c"/><rect x="23" y="196" width="10" height="10" rx="2" fill="#1a1d3d"/><rect x="23" y="209" width="10" height="10" rx="2" fill="#4b3f8c"/><rect x="36" y="131" width="10" height="10" rx="2" fill="#4b3f8c"/><rect x="36" y="144" width="10" height="10" rx="2" fill="#4b3f8c"/><rect x="36" y="157" width="10" height="10" rx="2" fill="#4b3f8c"/><rect x="36" y="170" width="10" height="10" rx="2" fill="#4b3f8c"/><rect x="36" y="183" width="10" height="10" rx="2" fill="#4b3f8c"/><rect x="36" y="196" width="10" height="10" rx="2" fill="#4b3f8c"/><rect x="36" y="209" width="10" height="10" rx="2" fill="#4b3f8c"/><rect x="49" y="131" width="10" height="10" rx="2" fill="#1a1d3d"/><rect x="49" y="144" width="10" height="10" rx="2" fill="#4b3f8c"/><rect x="49" y="157" width="10" height="10" rx="2" fill="#4b3f8c"/><rect x="49" y="170" width="10" height="10" rx="2" fill="#4b3f8c"/><rect x="49" y="183" width="10" height="10" rx="2" fill="#4b3f8c"/><rect x="49" y="196" width="10" height="10" rx="2" fill="#4b3f8c"/><rect x="49" y="209" width="10" height="10" rx="2" fill="#4b3f8c"/><rect x="62" y="131" width="10" height="10" rx="2" fill="#4b3f8c"/><rect x="62" y="144" width="10" height="10" rx="2" fill="#4b3f8c"/><rect x="62" y="157" width="10" height="10" rx="2" fill="#4b3f8c"/><rect x="62" y="170" width="10" height="10" rx="2" fill="#4b3f8c"/><rect x="62" y="183" width="10" height="10" rx="2" fill="#4b3f8c"/><rect x="62" y="196" width="10" height="10" rx="2" fill="#4b3f8c"/><rect x="62" y="209" width="10" height="10" rx="2" fill="#4b3f8c"/><rect x="75" y="131" width="10" height="10" rx="2" fill="#4b3f8c"/><rect x="75" y="144" width="10" height="10" rx="2" fill="#4b3f8c"/><rect x="75" y="157" width="10" height="10" rx="2" fill="#4b3f8c"/><rect x="75" y="170" width="10" height="10" rx="2" fill="#4b3f8c"/><rect x="75" y="183" width="10" height="10" rx="2" fill="#1a1d3d"/><rect x="75" y="196" width="10" height="10" rx="2" fill="#4b3f8c"/><rect x="75" y="209" width="10" height="10" rx="2" fill="#4b3f8c"/><rect x="88" y="131" width="10" height="10" rx="2" fill="#1a1d3d"/><rect x="88" y="144" width="10" height="10" rx="2" fill="#1a1d3d"/><rect x="88" y="157" width="10" height="10" rx="2" fill="#1a1d3d"/><rect x="88" y="170" width="10" height="10" rx="2" fill="#4b3f8c"/><rect x="88" y="183" width="10" height="10" rx="2" fill="#4b3f8c"/><rect x="88" y="196" width="10" height="10" rx="2" fill="#4b3f8c"/><rect x="88" y="209" width="10" height="10" rx="2" fill="#1a1d3d"/><rect x="101" y="131" width="10" height="10" rx="2" fill="#4b3f8c"/><rect x="101" y="144" width="10" height="10" rx="2" fill="#4b3f8c"/><rect x="101" y="157" width="10" height="10" rx="2" fill="#4b3f8c"/><rect x="101" y="170" width="10" height="10" rx="2" fill="#4b3f8c"/><rect x="101" y="183" width="10" height="10" rx="2" fill="#1a1d3d"/><rect x="101" y="196" width="10" height="10" rx="2" fill="#4b3f8c"/><rect x="101" y="209" width="10" height="10" rx="2" fill="#1a1d3d"/><rect x="114" y="131" width="10" height="10" rx="2" fill="#4b3f8c"/><rect x="114" y="144" width="10" height="10" rx="2" fill="#4b3f8c"/><rect x="114" y="157" width="10" height="10" rx="2" fill="#4b3f8c"/><rect x="114" y="170" width="10" height="10" rx="2" fill="#4b3f8c"/><rect x="114" y="183" width="10" height="10" rx="2" fill="#1a1d3d"/><rect x="114" y="196" width="10" height="10" rx="2" fill="#4b3f8c"/><rect x="114" y="209" width="10" height="10" rx="2" fill="#4b3f8c"/><rect x="127" y="131" width="10" height="10" rx="2" fill="#4b3f8c"/><rect x="127" y="144" width="10" height="10" rx="2" fill="#4b3f8c"/><rect x="127" y="157" width="10" height="10" rx="2" fill="#4b3f8c"/><rect x="127" y="170" width="10" height="10" rx="2" fill="#4b3f8c"/><rect x="127" y="183" width="10" height="10" rx="2" fill="#4b3f8c"/><rect x="127" y="196" width="10" height="10" rx="2" fill="#4b3f8c"/><rect x="127" y="209" width="10" height="10" rx="2" fill="#4b3f8c"/><rect x="140" y="131" width="10" height="10" rx="2" fill="#4b3f8c"/><rect x="140" y="144" width="10" height="10" rx="2" fill="#4b3f8c"/><rect x="140" y="157" width="10" height="10" rx="2" fill="#4b3f8c"/><rect x="140" y="170" width="10" height="10" rx="2" fill="#4b3f8c"/><rect x="140" y="183" width="10" height="10" rx="2" fill="#4b3f8c"/><rect x="140" y="196" width="10" height="10" rx="2" fill="#4b3f8c"/><rect x="140" y="209" width="10" height="10" rx="2" fill="#4b3f8c"/><rect x="153" y="131" width="10" height="10" rx="2" fill="#4b3f8c"/><rect x="153" y="144" width="10" height="10" rx="2" fill="#4b3f8c"/><rect x="153" y="157" width="10" height="10" rx="2" fill="#1a1d3d"/><rect x="153" y="170" width="10" height="10" rx="2" fill="#4b3f8c"/><rect x="153" y="183" width="10" height="10" rx="2" fill="#4b3f8c"/><rect x="153" y="196" width="10" height="10" rx="2" fill="#4b3f8c"/><rect x="153" y="209" width="10" height="10" rx="2" fill="#1a1d3d"/><rect x="166" y="131" width="10" height="10" rx="2" fill="#4b3f8c"/><rect x="166" y="144" width="10" height="10" rx="2" fill="#4b3f8c"/><rect x="166" y="157" width="10" height="10" rx="2" fill="#4b3f8c"/><rect x="166" y="170" width="10" height="10" rx="2" fill="#1a1d3d"/><rect x="166" y="183" width="10" height="10" rx="2" fill="#4b3f8c"/><rect x="166" y="196" width="10" height="10" rx="2" fill="#1a1d3d"/><rect x="166" y="209" width="10" height="10" rx="2" fill="#4b3f8c"/><rect x="179" y="131" width="10" height="10" rx="2" fill="#4b3f8c"/><rect x="179" y="144" width="10" height="10" rx="2" fill="#4b3f8c"/><rect x="179" y="157" width="10" height="10" rx="2" fill="#4b3f8c"/><rect x="179" y="170" width="10" height="10" rx="2" fill="#4b3f8c"/><rect x="179" y="183" width="10" height="10" rx="2" fill="#4b3f8c"/><rect x="179" y="196" width="10" height="10" rx="2" fill="#1a1d3d"/><rect x="179" y="209" width="10" height="10" rx="2" fill="#4b3f8c"/><rect x="192" y="131" width="10" height="10" rx="2" fill="#4b3f8c"/><rect x="192" y="144" width="10" height="10" rx="2" fill="#4b3f8c"/><rect x="192" y="157" width="10" height="10" rx="2" fill="#1a1d3d"/><rect x="192" y="170" width="10" height="10" rx="2" fill="#1a1d3d"/><rect x="192" y="183" width="10" height="10" rx="2" fill="#1a1d3d"/><rect x="192" y="196" width="10" height="10" rx="2" fill="#1a1d3d"/><rect x="192" y="209" width="10" height="10" rx="2" fill="#4b3f8c"/><rect x="205" y="131" width="10" height="10" rx="2" fill="#4b3f8c"/><rect x="205" y="144" width="10" height="10" rx="2" fill="#4b3f8c"/><rect x="205" y="157" width="10" height="10" rx="2" fill="#1a1d3d"/><rect x="205" y="170" width="10" height="10" rx="2" fill="#4b3f8c"/><rect x="205" y="183" width="10" height="10" rx="2" fill="#4b3f8c"/><rect x="205" y="196" width="10" height="10" rx="2" fill="#1a1d3d"/><rect x="205" y="209" width="10" height="10" rx="2" fill="#1a1d3d"/><rect x="218" y="131" width="10" height="10" rx="2" fill="#1a1d3d"/><rect x="218" y="144" width="10" height="10" rx="2" fill="#4b3f8c"/><rect x="218" y="157" width="10" height="10" rx="2" fill="#4b3f8c"/><rect x="218" y="170" width="10" height="10" rx="2" fill="#4b3f8c"/><rect x="218" y="183" width="10" height="10" rx="2" fill="#4b3f8c"/><rect x="218" y="196" width="10" height="10" rx="2" fill="#4b3f8c"/><rect x="218" y="209" width="10" height="10" rx="2" fill="#4b3f8c"/><rect x="231" y="131" width="10" height="10" rx="2" fill="#1a1d3d"/><rect x="231" y="144" width="10" height="10" rx="2" fill="#4b3f8c"/><rect x="231" y="157" width="10" height="10" rx="2" fill="#4b3f8c"/><rect x="231" y="170" width="10" height="10" rx="2" fill="#1a1d3d"/><rect x="231" y="183" width="10" height="10" rx="2" fill="#1a1d3d"/><rect x="231" y="196" width="10" height="10" rx="2" fill="#4b3f8c"/><rect x="231" y="209" width="10" height="10" rx="2" fill="#1a1d3d"/><rect x="244" y="131" width="10" height="10" rx="2" fill="#4b3f8c"/><rect x="244" y="144" width="10" height="10" rx="2" fill="#4b3f8c"/><rect x="244" y="157" width="10" height="10" rx="2" fill="#4b3f8c"/><rect x="244" y="170" width="10" height="10" rx="2" fill="#1a1d3d"/><rect x="244" y="183" width="10" height="10" rx="2" fill="#4b3f8c"/><rect x="244" y="196" width="10" height="10" rx="2" fill="#4b3f8c"/><rect x="244" y="209" width="10" height="10" rx="2" fill="#4b3f8c"/><rect x="257" y="131" width="10" height="10" rx="2" fill="#4b3f8c"/><rect x="257" y="144" width="10" height="10" rx="2" fill="#4b3f8c"/><rect x="257" y="157" width="10" height="10" rx="2" fill="#1a1d3d"/><rect x="257" y="170" width="10" height="10" rx="2" fill="#4b3f8c"/><rect x="257" y="183" width="10" height="10" rx="2" fill="#1a1d3d"/><rect x="257" y="196" width="10" height="10" rx="2" fill="#4b3f8c"/><rect x="257" y="209" width="10" height="10" rx="2" fill="#1a1d3d"/><rect x="270" y="131" width="10" height="10" rx="2" fill="#4b3f8c"/><rect x="270" y="144" width="10" height="10" rx="2" fill="#4b3f8c"/><rect x="270" y="157" width="10" height="10" rx="2" fill="#1a1d3d"/><rect x="270" y="170" width="10" height="10" rx="2" fill="#1a1d3d"/><rect x="270" y="183" width="10" height="10" rx="2" fill="#1a1d3d"/><rect x="270" y="196" width="10" height="10" rx="2" fill="#4b3f8c"/><rect x="270" y="209" width="10" height="10" rx="2" fill="#4b3f8c"/><rect x="283" y="131" width="10" height="10" rx="2" fill="#4b3f8c"/><rect x="283" y="144" width="10" height="10" rx="2" fill="#4b3f8c"/><rect x="283" y="157" width="10" height="10" rx="2" fill="#4b3f8c"/><rect x="283" y="170" width="10" height="10" rx="2" fill="#4b3f8c"/><rect x="283" y="183" width="10" height="10" rx="2" fill="#4b3f8c"/><rect x="283" y="196" width="10" height="10" rx="2" fill="#1a1d3d"/><rect x="283" y="209" width="10" height="10" rx="2" fill="#4b3f8c"/><rect x="296" y="131" width="10" height="10" rx="2" fill="#1a1d3d"/><rect x="296" y="144" width="10" height="10" rx="2" fill="#4b3f8c"/><rect x="296" y="157" width="10" height="10" rx="2" fill="#4b3f8c"/><rect x="296" y="170" width="10" height="10" rx="2" fill="#1a1d3d"/><rect x="296" y="183" width="10" height="10" rx="2" fill="#1a1d3d"/><rect x="296" y="196" width="10" height="10" rx="2" fill="#1a1d3d"/><rect x="296" y="209" width="10" height="10" rx="2" fill="#1a1d3d"/><rect x="309" y="131" width="10" height="10" rx="2" fill="#4b3f8c"/><rect x="309" y="144" width="10" height="10" rx="2" fill="#4b3f8c"/><rect x="309" y="157" width="10" height="10" rx="2" fill="#1a1d3d"/><rect x="309" y="170" width="10" height="10" rx="2" fill="#1a1d3d"/><rect x="309" y="183" width="10" height="10" rx="2" fill="#4b3f8c"/><rect x="309" y="196" width="10" height="10" rx="2" fill="#1a1d3d"/><rect x="309" y="209" width="10" height="10" rx="2" fill="#1a1d3d"/><rect x="322" y="131" width="10" height="10" rx="2" fill="#4b3f8c"/><rect x="322" y="144" width="10" height="10" rx="2" fill="#4b3f8c"/><rect x="322" y="157" width="10" height="10" rx="2" fill="#4b3f8c"/><rect x="322" y="170" width="10" height="10" rx="2" fill="#4b3f8c"/><rect x="322" y="183" width="10" height="10" rx="2" fill="#1a1d3d"/><rect x="322" y="196" width="10" height="10" rx="2" fill="#4b3f8c"/><rect x="322" y="209" width="10" height="10" rx="2" fill="#1a1d3d"/><rect x="335" y="131" width="10" height="10" rx="2" fill="#4b3f8c"/><rect x="335" y="144" width="10" height="10" rx="2" fill="#1a1d3d"/><rect x="335" y="157" width="10" height="10" rx="2" fill="#4b3f8c"/><rect x="335" y="170" width="10" height="10" rx="2" fill="#1a1d3d"/><rect x="335" y="183" width="10" height="10" rx="2" fill="#1a1d3d"/><rect x="335" y="196" width="10" height="10" rx="2" fill="#1a1d3d"/><rect x="335" y="209" width="10" height="10" rx="2" fill="#4b3f8c"/><rect x="348" y="131" width="10" height="10" rx="2" fill="#4b3f8c"/><rect x="348" y="144" width="10" height="10" rx="2" fill="#1a1d3d"/><rect x="348" y="157" width="10" height="10" rx="2" fill="#1a1d3d"/><rect x="348" y="170" width="10" height="10" rx="2" fill="#1a1d3d"/><rect x="348" y="183" width="10" height="10" rx="2" fill="#1a1d3d"/><rect x="348" y="196" width="10" height="10" rx="2" fill="#1a1d3d"/><rect x="348" y="209" width="10" height="10" rx="2" fill="#1a1d3d"/><rect x="361" y="131" width="10" height="10" rx="2" fill="#4b3f8c"/><rect x="361" y="144" width="10" height="10" rx="2" fill="#4b3f8c"/><rect x="361" y="157" width="10" height="10" rx="2" fill="#4b3f8c"/><rect x="361" y="170" width="10" height="10" rx="2" fill="#4b3f8c"/><rect x="361" y="183" width="10" height="10" rx="2" fill="#4b3f8c"/><rect x="361" y="196" width="10" height="10" rx="2" fill="#4b3f8c"/><rect x="361" y="209" width="10" height="10" rx="2" fill="#1a1d3d"/><rect x="374" y="131" width="10" height="10" rx="2" fill="#4b3f8c"/><rect x="374" y="144" width="10" height="10" rx="2" fill="#4b3f8c"/><rect x="374" y="157" width="10" height="10" rx="2" fill="#1a1d3d"/><rect x="374" y="170" width="10" height="10" rx="2" fill="#4b3f8c"/><rect x="374" y="183" width="10" height="10" rx="2" fill="#1a1d3d"/><rect x="374" y="196" width="10" height="10" rx="2" fill="#1a1d3d"/><rect x="374" y="209" width="10" height="10" rx="2" fill="#1a1d3d"/><rect x="387" y="131" width="10" height="10" rx="2" fill="#4b3f8c"/><rect x="387" y="144" width="10" height="10" rx="2" fill="#4b3f8c"/><rect x="387" y="157" width="10" height="10" rx="2" fill="#4b3f8c"/><rect x="387" y="170" width="10" height="10" rx="2" fill="#4b3f8c"/><rect x="387" y="183" width="10" height="10" rx="2" fill="#4b3f8c"/><rect x="387" y="196" width="10" height="10" rx="2" fill="#4b3f8c"/><rect x="387" y="209" width="10" height="10" rx="2" fill="#4b3f8c"/><rect x="400" y="131" width="10" height="10" rx="2" fill="#4b3f8c"/><rect x="400" y="144" width="10" height="10" rx="2" fill="#1a1d3d"/><rect x="400" y="157" width="10" height="10" rx="2" fill="#4b3f8c"/><rect x="400" y="170" width="10" height="10" rx="2" fill="#1a1d3d"/><rect x="400" y="183" width="10" height="10" rx="2" fill="#4b3f8c"/><rect x="400" y="196" width="10" height="10" rx="2" fill="#4b3f8c"/><rect x="400" y="209" width="10" height="10" rx="2" fill="#1a1d3d"/><rect x="413" y="131" width="10" height="10" rx="2" fill="#4b3f8c"/><rect x="413" y="144" width="10" height="10" rx="2" fill="#4b3f8c"/><rect x="413" y="157" width="10" height="10" rx="2" fill="#1a1d3d"/><rect x="413" y="170" width="10" height="10" rx="2" fill="#1a1d3d"/><rect x="413" y="183" width="10" height="10" rx="2" fill="#4b3f8c"/><rect x="413" y="196" width="10" height="10" rx="2" fill="#4b3f8c"/><rect x="413" y="209" width="10" height="10" rx="2" fill="#4b3f8c"/><rect x="426" y="131" width="10" height="10" rx="2" fill="#1a1d3d"/><rect x="426" y="144" width="10" height="10" rx="2" fill="#4b3f8c"/><rect x="426" y="157" width="10" height="10" rx="2" fill="#1a1d3d"/><rect x="426" y="170" width="10" height="10" rx="2" fill="#4b3f8c"/><rect x="426" y="183" width="10" height="10" rx="2" fill="#4b3f8c"/><rect x="426" y="196" width="10" height="10" rx="2" fill="#4b3f8c"/><rect x="426" y="209" width="10" height="10" rx="2" fill="#4b3f8c"/><rect x="439" y="131" width="10" height="10" rx="2" fill="#4b3f8c"/><rect x="439" y="144" width="10" height="10" rx="2" fill="#4b3f8c"/><rect x="439" y="157" width="10" height="10" rx="2" fill="#1a1d3d"/><rect x="439" y="170" width="10" height="10" rx="2" fill="#1a1d3d"/><rect x="439" y="183" width="10" height="10" rx="2" fill="#4b3f8c"/><rect x="439" y="196" width="10" height="10" rx="2" fill="#4b3f8c"/><rect x="439" y="209" width="10" height="10" rx="2" fill="#1a1d3d"/><rect x="452" y="131" width="10" height="10" rx="2" fill="#1a1d3d"/><rect x="452" y="144" width="10" height="10" rx="2" fill="#4b3f8c"/><rect x="452" y="157" width="10" height="10" rx="2" fill="#4b3f8c"/><rect x="452" y="170" width="10" height="10" rx="2" fill="#4b3f8c"/><rect x="452" y="183" width="10" height="10" rx="2" fill="#4b3f8c"/><rect x="452" y="196" width="10" height="10" rx="2" fill="#1a1d3d"/><rect x="452" y="209" width="10" height="10" rx="2" fill="#1a1d3d"/><rect x="465" y="131" width="10" height="10" rx="2" fill="#4b3f8c"/><rect x="465" y="144" width="10" height="10" rx="2" fill="#4b3f8c"/><rect x="465" y="157" width="10" height="10" rx="2" fill="#1a1d3d"/><rect x="465" y="170" width="10" height="10" rx="2" fill="#1a1d3d"/><rect x="465" y="183" width="10" height="10" rx="2" fill="#4b3f8c"/><rect x="465" y="196" width="10" height="10" rx="2" fill="#1a1d3d"/><rect x="465" y="209" width="10" height="10" rx="2" fill="#1a1d3d"/><rect x="478" y="131" width="10" height="10" rx="2" fill="#1a1d3d"/><rect x="478" y="144" width="10" height="10" rx="2" fill="#4b3f8c"/><rect x="478" y="157" width="10" height="10" rx="2" fill="#4b3f8c"/><rect x="478" y="170" width="10" height="10" rx="2" fill="#1a1d3d"/><rect x="478" y="183" width="10" height="10" rx="2" fill="#1a1d3d"/><rect x="478" y="196" width="10" height="10" rx="2" fill="#4b3f8c"/><rect x="478" y="209" width="10" height="10" rx="2" fill="#1a1d3d"/><rect x="491" y="131" width="10" height="10" rx="2" fill="#1a1d3d"/><rect x="491" y="144" width="10" height="10" rx="2" fill="#4b3f8c"/><rect x="491" y="157" width="10" height="10" rx="2" fill="#4b3f8c"/><rect x="491" y="170" width="10" height="10" rx="2" fill="#1a1d3d"/><rect x="491" y="183" width="10" height="10" rx="2" fill="#4b3f8c"/><rect x="491" y="196" width="10" height="10" rx="2" fill="#4b3f8c"/><rect x="491" y="209" width="10" height="10" rx="2" fill="#4b3f8c"/><rect x="504" y="131" width="10" height="10" rx="2" fill="#1a1d3d"/><rect x="504" y="144" width="10" height="10" rx="2" fill="#4b3f8c"/><rect x="504" y="157" width="10" height="10" rx="2" fill="#4b3f8c"/><rect x="504" y="170" width="10" height="10" rx="2" fill="#4b3f8c"/><rect x="504" y="183" width="10" height="10" rx="2" fill="#1a1d3d"/><rect x="504" y="196" width="10" height="10" rx="2" fill="#1a1d3d"/><rect x="504" y="209" width="10" height="10" rx="2" fill="#1a1d3d"/><rect x="517" y="131" width="10" height="10" rx="2" fill="#1a1d3d"/><rect x="517" y="144" width="10" height="10" rx="2" fill="#4b3f8c"/><rect x="517" y="157" width="10" height="10" rx="2" fill="#4b3f8c"/><rect x="517" y="170" width="10" height="10" rx="2" fill="#4b3f8c"/><rect x="517" y="183" width="10" height="10" rx="2" fill="#4b3f8c"/><rect x="517" y="196" width="10" height="10" rx="2" fill="#4b3f8c"/><rect x="517" y="209" width="10" height="10" rx="2" fill="#4b3f8c"/><rect x="530" y="131" width="10" height="10" rx="2" fill="#4b3f8c"/><rect x="530" y="144" width="10" height="10" rx="2" fill="#4b3f8c"/><rect x="530" y="157" width="10" height="10" rx="2" fill="#4b3f8c"/><rect x="530" y="170" width="10" height="10" rx="2" fill="#4b3f8c"/><rect x="530" y="183" width="10" height="10" rx="2" fill="#1a1d3d"/><rect x="530" y="196" width="10" height="10" rx="2" fill="#1a1d3d"/><rect x="530" y="209" width="10" height="10" rx="2" fill="#4b3f8c"/><rect x="543" y="131" width="10" height="10" rx="2" fill="#4b3f8c"/><rect x="543" y="144" width="10" height="10" rx="2" fill="#1a1d3d"/><rect x="543" y="157" width="10" height="10" rx="2" fill="#4b3f8c"/><rect x="543" y="170" width="10" height="10" rx="2" fill="#4b3f8c"/><rect x="543" y="183" width="10" height="10" rx="2" fill="#4b3f8c"/><rect x="543" y="196" width="10" height="10" rx="2" fill="#1a1d3d"/><rect x="543" y="209" width="10" height="10" rx="2" fill="#1a1d3d"/><rect x="556" y="131" width="10" height="10" rx="2" fill="#4b3f8c"/><rect x="556" y="144" width="10" height="10" rx="2" fill="#4b3f8c"/><rect x="556" y="157" width="10" height="10" rx="2" fill="#4b3f8c"/><rect x="556" y="170" width="10" height="10" rx="2" fill="#1a1d3d"/><rect x="556" y="183" width="10" height="10" rx="2" fill="#1a1d3d"/><rect x="556" y="196" width="10" height="10" rx="2" fill="#4b3f8c"/><rect x="556" y="209" width="10" height="10" rx="2" fill="#4b3f8c"/><rect x="569" y="131" width="10" height="10" rx="2" fill="#1a1d3d"/><rect x="569" y="144" width="10" height="10" rx="2" fill="#4b3f8c"/><rect x="569" y="157" width="10" height="10" rx="2" fill="#1a1d3d"/><rect x="569" y="170" width="10" height="10" rx="2" fill="#4b3f8c"/><rect x="569" y="183" width="10" height="10" rx="2" fill="#4b3f8c"/><rect x="569" y="196" width="10" height="10" rx="2" fill="#1a1d3d"/><rect x="569" y="209" width="10" height="10" rx="2" fill="#4b3f8c"/><rect x="582" y="131" width="10" height="10" rx="2" fill="#4b3f8c"/><rect x="582" y="144" width="10" height="10" rx="2" fill="#4b3f8c"/><rect x="582" y="157" width="10" height="10" rx="2" fill="#1a1d3d"/><rect x="582" y="170" width="10" height="10" rx="2" fill="#1a1d3d"/><rect x="582" y="183" width="10" height="10" rx="2" fill="#4b3f8c"/><rect x="582" y="196" width="10" height="10" rx="2" fill="#1a1d3d"/><rect x="582" y="209" width="10" height="10" rx="2" fill="#1a1d3d"/><rect x="595" y="131" width="10" height="10" rx="2" fill="#4b3f8c"/><rect x="595" y="144" width="10" height="10" rx="2" fill="#4b3f8c"/><rect x="595" y="157" width="10" height="10" rx="2" fill="#1a1d3d"/><rect x="595" y="170" width="10" height="10" rx="2" fill="#4b3f8c"/><rect x="595" y="183" width="10" height="10" rx="2" fill="#4b3f8c"/><rect x="595" y="196" width="10" height="10" rx="2" fill="#4b3f8c"/><rect x="595" y="209" width="10" height="10" rx="2" fill="#1a1d3d"/><rect x="608" y="131" width="10" height="10" rx="2" fill="#4b3f8c"/><rect x="608" y="144" width="10" height="10" rx="2" fill="#4b3f8c"/><rect x="608" y="157" width="10" height="10" rx="2" fill="#1a1d3d"/><rect x="608" y="170" width="10" height="10" rx="2" fill="#9a4a78"/><rect x="608" y="183" width="10" height="10" rx="2" fill="#4b3f8c"/><rect x="608" y="196" width="10" height="10" rx="2" fill="#4b3f8c"/><rect x="608" y="209" width="10" height="10" rx="2" fill="#1a1d3d"/><rect x="621" y="131" width="10" height="10" rx="2" fill="#4b3f8c"/><rect x="621" y="144" width="10" height="10" rx="2" fill="#4b3f8c"/><rect x="621" y="157" width="10" height="10" rx="2" fill="#4b3f8c"/><rect x="621" y="170" width="10" height="10" rx="2" fill="#4b3f8c"/><rect x="621" y="183" width="10" height="10" rx="2" fill="#4b3f8c"/><rect x="621" y="196" width="10" height="10" rx="2" fill="#9a4a78"/><rect x="621" y="209" width="10" height="10" rx="2" fill="#1a1d3d"/><rect x="634" y="131" width="10" height="10" rx="2" fill="#1a1d3d"/><rect x="634" y="144" width="10" height="10" rx="2" fill="#9a4a78"/><rect x="634" y="157" width="10" height="10" rx="2" fill="#9a4a78"/><rect x="634" y="170" width="10" height="10" rx="2" fill="#9a4a78"/><rect x="634" y="183" width="10" height="10" rx="2" fill="#ff5fa2"/><rect x="634" y="196" width="10" height="10" rx="2" fill="#ff5fa2"/><rect x="634" y="209" width="10" height="10" rx="2" fill="#1a1d3d"/><rect x="647" y="131" width="10" height="10" rx="2" fill="#4b3f8c"/><rect x="647" y="144" width="10" height="10" rx="2" fill="#ff5fa2"/><rect x="647" y="157" width="10" height="10" rx="2" fill="#ff5fa2"/><rect x="647" y="170" width="10" height="10" rx="2" fill="#9a4a78"/><rect x="647" y="183" width="10" height="10" rx="2" fill="#ff5fa2"/><rect x="647" y="196" width="10" height="10" rx="2" fill="#9a4a78"/><rect x="647" y="209" width="10" height="10" rx="2" fill="#4b3f8c"/><rect x="660" y="131" width="10" height="10" rx="2" fill="#4b3f8c"/><rect x="660" y="144" width="10" height="10" rx="2" fill="#ff5fa2"/><rect x="660" y="157" width="10" height="10" rx="2" fill="#ffd76a"/><rect x="660" y="170" width="10" height="10" rx="2" fill="#ff5fa2"/><rect x="660" y="183" width="10" height="10" rx="2" fill="#9a4a78"/><rect x="660" y="196" width="10" height="10" rx="2" fill="#ff5fa2"/><rect x="660" y="209" width="10" height="10" rx="2" fill="#4b3f8c"/><rect x="673" y="131" width="10" height="10" rx="2" fill="#4b3f8c"/><rect x="673" y="144" width="10" height="10" rx="2" fill="#ff5fa2"/><rect x="673" y="157" width="10" height="10" rx="2" fill="#ff5fa2"/><rect x="673" y="170" width="10" height="10" rx="2" fill="#ffd76a"/><rect x="673" y="183" width="10" height="10" rx="2" fill="#ff5fa2"/><rect x="673" y="196" width="10" height="10" rx="2" fill="#ff5fa2"/><rect x="673" y="209" width="10" height="10" rx="2" fill="#4b3f8c"/><rect x="686" y="131" width="10" height="10" rx="2" fill="#4b3f8c"/><rect x="686" y="144" width="10" height="10" rx="2" fill="#4b3f8c"/><rect x="686" y="157" width="10" height="10" rx="2" fill="#ff5fa2"/><rect x="686" y="170" width="10" height="10" rx="2" fill="#ffd76a"/><rect x="686" y="183" width="10" height="10" rx="2" fill="#ff5fa2"/><rect x="686" y="196" width="10" height="10" rx="2" fill="#ff5fa2"/><rect x="686" y="209" width="10" height="10" rx="2" fill="#4b3f8c"/><rect class="sw" x="9" y="128" width="12" height="94" rx="3" fill="none" stroke="#ffd76a" stroke-opacity=".8" stroke-width="1.5"/><text x="10" y="236" fill="#8b949e" font-family="ui-monospace,SFMono-Regular,Menlo,Consolas,monospace" font-size="10" font-weight="400" text-anchor="start">rendered 2026-09-26 · daily via GitHub Actions</text><text x="586" y="236" fill="#8b949e" font-family="ui-monospace,SFMono-Regular,Menlo,Consolas,monospace" font-size="10" font-weight="400" text-anchor="end">less</text><rect x="592" y="227" width="10" height="10" rx="2" fill="#1a1d3d"/><rect x="606" y="227" width="10" height="10" rx="2" fill="#4b3f8c"/><rect x="620" y="227" width="10" height="10" rx="2" fill="#9a4a78"/><rect x="634" y="227" width="10" height="10" rx="2" fill="#ff5fa2"/><rect x="648" y="227" width="10" height="10" rx="2" fill="#ffd76a"/><text x="664" y="236" fill="#8b949e" font-family="ui-monospace,SFMono-Regular,Menlo,Consolas,monospace" font-size="10" font-weight="400" text-anchor="start">more</text></svg>
